<svg width="169" height="60" viewBox="0 0 169 60" fill="none" xmlns="http://www.w3.org/2000/svg">
<rect x="2.14746" y="19.4561" width="27.8699" height="25.0681" stroke="white" stroke-width="0.294919"/>
<path d="M4.58054 31.4002V19.5297H29.9436V39.7317L28.0266 41.7224H12.912L4.58054 31.4002Z" fill="white" stroke="white" stroke-width="0.294919"/>
<circle cx="18.9579" cy="28.8934" r="6.63568" fill="#316CE8" stroke="#CCD8EE" stroke-width="0.294919"/>
<circle cx="18.9578" cy="28.8935" r="1.91697" fill="white" stroke="white" stroke-width="0.294919"/>
<path d="M42.9627 29.4892H44.9326C46.2114 29.4892 47.0668 29.3466 47.4988 29.0615C47.9308 28.7764 48.1468 28.2709 48.1468 27.5451C48.1468 26.8107 47.9394 26.3009 47.5247 26.0158C47.11 25.7307 46.2459 25.5881 44.9326 25.5881H42.9627V29.4892ZM36.8324 40V20.9095H44.6864C46.4231 20.9095 47.7969 21.0131 48.8078 21.2205C49.8273 21.4192 50.6784 21.7432 51.3609 22.1925C52.2422 22.7887 52.8989 23.5274 53.3309 24.4087C53.7629 25.29 53.9789 26.3355 53.9789 27.5451C53.9789 29.6793 53.3482 31.3166 52.0867 32.4571C50.8252 33.589 49.0065 34.1549 46.6304 34.1549H42.9627V40H36.8324ZM59.7343 31.3684H64.7241C64.6636 30.4958 64.4217 29.8434 63.9983 29.4114C63.5749 28.9708 62.9658 28.7504 62.1709 28.7504C61.4365 28.7504 60.8533 28.9837 60.4212 29.4503C59.9979 29.9082 59.7689 30.5476 59.7343 31.3684ZM64.426 35.8268H69.7915C69.4027 37.3647 68.5474 38.5312 67.2254 39.3261C65.9121 40.1123 64.1754 40.5055 62.0154 40.5055C59.5961 40.5055 57.6737 39.8358 56.248 38.4966C54.831 37.1487 54.1225 35.3386 54.1225 33.0662C54.1225 30.6988 54.8483 28.8325 56.2999 27.4674C57.7514 26.0936 59.7257 25.4067 62.2227 25.4067C64.7284 25.4067 66.6897 26.1541 68.1067 27.6488C69.5323 29.1349 70.2452 31.1999 70.2452 33.8439V34.1808L59.7343 34.1938C59.7603 35.0924 59.9979 35.7879 60.4472 36.2804C60.8965 36.7642 61.5229 37.0062 62.3264 37.0062C62.8707 37.0062 63.3244 36.9068 63.6872 36.7081C64.0501 36.5007 64.2964 36.2069 64.426 35.8268ZM71.4904 40V25.9121H76.5838V27.9728C77.2404 27.152 77.9705 26.5429 78.7741 26.1454C79.5863 25.7393 80.5021 25.5363 81.5217 25.5363C82.3771 25.5363 83.1417 25.6789 83.8156 25.964C84.4896 26.2491 85.0598 26.6725 85.5264 27.2341C85.9498 27.7439 86.2479 28.366 86.4207 29.1004C86.6021 29.8262 86.6928 31.0185 86.6928 32.6774V40H81.094V32.7033C81.094 31.632 80.9514 30.8975 80.6663 30.5001C80.3812 30.094 79.8887 29.891 79.1888 29.891C78.4803 29.891 77.9533 30.1242 77.6077 30.5908C77.262 31.0574 77.0892 31.7702 77.0892 32.7293V40H71.4904ZM93.4851 32.8589C93.4851 33.9907 93.6708 34.8332 94.0424 35.3861C94.4139 35.9305 94.9798 36.2026 95.7402 36.2026C96.5437 36.2026 97.1356 35.9348 97.5157 35.3991C97.9045 34.8634 98.099 34.0253 98.099 32.8848C98.099 31.8652 97.8916 31.0747 97.4769 30.513C97.0708 29.9514 96.4919 29.6706 95.7402 29.6706C94.9798 29.6706 94.4139 29.9385 94.0424 30.4742C93.6708 31.0012 93.4851 31.7961 93.4851 32.8589ZM88.8323 41.5164H94.3793C94.4485 41.8533 94.6083 42.0953 94.8589 42.2421C95.1181 42.389 95.5069 42.4625 96.0253 42.4625C96.8461 42.4625 97.3991 42.281 97.6842 41.9181C97.978 41.5552 98.1249 40.756 98.1249 39.5205V38.7558C97.6497 39.2137 97.0837 39.5593 96.4271 39.7926C95.7791 40.0173 95.036 40.1296 94.1979 40.1296C92.2971 40.1296 90.7721 39.4816 89.6229 38.1856C88.4824 36.8809 87.9121 35.1485 87.9121 32.9885C87.9121 30.7161 88.4565 28.906 89.5451 27.5581C90.6425 26.2102 92.1026 25.5363 93.9257 25.5363C94.9453 25.5363 95.8309 25.7177 96.5826 26.0806C97.3429 26.4349 97.9996 26.9878 98.5526 27.7395V25.9121H103.516V38.9113C103.516 41.3652 102.916 43.1062 101.715 44.1343C100.514 45.1625 98.4878 45.6766 95.6365 45.6766C93.6579 45.6766 92.0767 45.3137 90.893 44.588C89.7093 43.8622 89.0224 42.8383 88.8323 41.5164ZM105.5 40V25.9121H110.671V28.4783C111.043 27.4587 111.574 26.7157 112.266 26.2491C112.965 25.7739 113.894 25.5363 115.052 25.5363H115.558V31.1222C115.35 31.1049 115.151 31.0919 114.961 31.0833C114.771 31.066 114.59 31.0574 114.417 31.0574C113.285 31.0574 112.451 31.3123 111.916 31.822C111.389 32.3318 111.125 33.131 111.125 34.2197V40H105.5ZM126.056 33.7142C125.521 33.9216 124.808 34.1419 123.918 34.3752C122.518 34.7468 121.818 35.2436 121.818 35.8657C121.818 36.2631 121.957 36.5742 122.233 36.7988C122.51 37.0234 122.903 37.1358 123.413 37.1358C124.346 37.1358 125.024 36.9198 125.447 36.4878C125.879 36.0557 126.095 35.3688 126.095 34.4271C126.095 34.2283 126.091 34.0815 126.082 33.9864C126.082 33.8827 126.074 33.792 126.056 33.7142ZM126.575 40L126.225 38.6521C125.508 39.2829 124.734 39.7494 123.905 40.0518C123.076 40.3542 122.142 40.5055 121.106 40.5055C119.516 40.5055 118.285 40.1166 117.412 39.339C116.548 38.5528 116.116 37.4468 116.116 36.0212C116.116 34.6301 116.544 33.6019 117.399 32.9366C118.254 32.2713 119.87 31.7875 122.246 31.4851C122.549 31.4419 122.955 31.3944 123.464 31.3425C125.236 31.1524 126.121 30.6945 126.121 29.9687C126.121 29.5626 125.957 29.2689 125.629 29.0874C125.309 28.8973 124.799 28.8023 124.099 28.8023C123.521 28.8023 123.076 28.9189 122.765 29.1522C122.453 29.3769 122.272 29.7268 122.22 30.202H116.751C116.777 28.6208 117.425 27.4285 118.695 26.625C119.965 25.8128 121.831 25.4067 124.294 25.4067C125.452 25.4067 126.519 25.5147 127.495 25.7307C128.48 25.9467 129.245 26.2361 129.789 26.599C130.454 27.0483 130.921 27.5581 131.189 28.1284C131.457 28.69 131.59 29.4978 131.59 30.5519V38.4059C131.59 38.6651 131.642 38.8984 131.746 39.1057C131.85 39.3045 132.001 39.4686 132.2 39.5982V40H126.575ZM134.313 40V29.0874H132.564V25.9121H134.313V25.0308C134.313 23.4583 134.702 22.3005 135.48 21.5575C136.266 20.8144 137.484 20.4429 139.134 20.4429H142.271V23.9681C142.202 23.9681 142.102 23.9638 141.973 23.9551C141.843 23.9465 141.748 23.9422 141.688 23.9422C141.005 23.9422 140.53 24.0588 140.262 24.2921C139.994 24.5167 139.86 24.9142 139.86 25.4844C139.86 25.5276 139.865 25.5968 139.873 25.6918C139.882 25.7782 139.886 25.8517 139.886 25.9121H142.271V29.0874H139.886V40H134.313ZM143.037 24.4735V20.4429H148.687V24.4735H143.037ZM143.037 40V25.9121H148.687V40H143.037ZM160.21 34.5048H165.809C165.688 36.3625 164.945 37.827 163.58 38.8984C162.223 39.9698 160.417 40.5055 158.162 40.5055C155.665 40.5055 153.691 39.8272 152.239 38.4707C150.788 37.1142 150.062 35.2695 150.062 32.9366C150.062 30.6038 150.779 28.7677 152.213 27.4285C153.648 26.0806 155.613 25.4067 158.11 25.4067C160.374 25.4067 162.197 25.9381 163.58 27.0008C164.962 28.0549 165.688 29.4762 165.757 31.2647H160.158C160.098 30.5995 159.899 30.107 159.562 29.7873C159.225 29.4676 158.732 29.3077 158.084 29.3077C157.272 29.3077 156.676 29.6015 156.296 30.189C155.916 30.7679 155.726 31.6838 155.726 32.9366C155.726 34.2067 155.907 35.1356 156.27 35.7231C156.642 36.3106 157.229 36.6044 158.033 36.6044C158.681 36.6044 159.186 36.4273 159.549 36.073C159.921 35.7188 160.141 35.196 160.21 34.5048Z" fill="white"/>
</svg>
